<?xml version="1.0" encoding="UTF-8" standalone="no"?>
<!DOCTYPE svg PUBLIC "-//W3C//DTD SVG 1.0//EN" "http://www.w3.org/TR/2001/PR-SVG-20010719/DTD/svg10.dtd">
<svg width="76cm" height="39cm" viewBox="697 94 1505 768" xmlns="http://www.w3.org/2000/svg" xmlns:xlink="http://www.w3.org/1999/xlink">
  <g>
    <rect style="fill: #8da0cb" x="1700" y="200" width="100" height="100"/>
    <rect style="fill: none; fill-opacity:0; stroke-width: 4; stroke: #000000" x="1700" y="200" width="100" height="100"/>
  </g>
  <g>
    <rect style="fill: #8da0cb" x="1800" y="200" width="100" height="100"/>
    <rect style="fill: none; fill-opacity:0; stroke-width: 4; stroke: #000000" x="1800" y="200" width="100" height="100"/>
  </g>
  <g>
    <rect style="fill: #8da0cb" x="1900" y="200" width="100" height="100"/>
    <rect style="fill: none; fill-opacity:0; stroke-width: 4; stroke: #000000" x="1900" y="200" width="100" height="100"/>
  </g>
  <g>
    <rect style="fill: #8da0cb" x="2000" y="200" width="100" height="100"/>
    <rect style="fill: none; fill-opacity:0; stroke-width: 4; stroke: #000000" x="2000" y="200" width="100" height="100"/>
  </g>
  <g>
    <rect style="fill: #8da0cb" x="2100" y="200" width="100" height="100"/>
    <rect style="fill: none; fill-opacity:0; stroke-width: 4; stroke: #000000" x="2100" y="200" width="100" height="100"/>
  </g>
  <g>
    <rect style="fill: #66c2a5" x="700" y="200" width="100" height="100"/>
    <rect style="fill: none; fill-opacity:0; stroke-width: 4; stroke: #000000" x="700" y="200" width="100" height="100"/>
  </g>
  <g>
    <rect style="fill: #66c2a5" x="800" y="200" width="100" height="100"/>
    <rect style="fill: none; fill-opacity:0; stroke-width: 4; stroke: #000000" x="800" y="200" width="100" height="100"/>
  </g>
  <g>
    <rect style="fill: #66c2a5" x="900" y="200" width="100" height="100"/>
    <rect style="fill: none; fill-opacity:0; stroke-width: 4; stroke: #000000" x="900" y="200" width="100" height="100"/>
  </g>
  <g>
    <rect style="fill: #66c2a5" x="1000" y="200" width="100" height="100"/>
    <rect style="fill: none; fill-opacity:0; stroke-width: 4; stroke: #000000" x="1000" y="200" width="100" height="100"/>
  </g>
  <g>
    <rect style="fill: #66c2a5" x="1100" y="200" width="100" height="100"/>
    <rect style="fill: none; fill-opacity:0; stroke-width: 4; stroke: #000000" x="1100" y="200" width="100" height="100"/>
  </g>
  <text font-size="50.8" style="fill: #000000;text-anchor:middle;font-family:sans-serif;font-style:italic;font-weight:normal" x="750" y="267.575">
    <tspan x="750" y="267.575">0</tspan>
  </text>
  <text font-size="50.8" style="fill: #000000;text-anchor:middle;font-family:sans-serif;font-style:italic;font-weight:normal" x="850" y="267.575">
    <tspan x="850" y="267.575">1</tspan>
  </text>
  <text font-size="50.8" style="fill: #000000;text-anchor:middle;font-family:sans-serif;font-style:italic;font-weight:normal" x="950" y="267.575">
    <tspan x="950" y="267.575">2</tspan>
  </text>
  <g>
    <rect style="fill: #66c2a5" x="700" y="760" width="100" height="100"/>
    <rect style="fill: none; fill-opacity:0; stroke-width: 4; stroke: #000000" x="700" y="760" width="100" height="100"/>
  </g>
  <g>
    <rect style="fill: #fc8d62" x="1200" y="760" width="100" height="100"/>
    <rect style="fill: none; fill-opacity:0; stroke-width: 4; stroke: #000000" x="1200" y="760" width="100" height="100"/>
  </g>
  <g>
    <rect style="fill: #8da0cb" x="1700" y="760" width="100" height="100"/>
    <rect style="fill: none; fill-opacity:0; stroke-width: 4; stroke: #000000" x="1700" y="760" width="100" height="100"/>
  </g>
  <g>
    <rect style="fill: #66c2a5" x="700" y="460" width="100" height="100"/>
    <rect style="fill: none; fill-opacity:0; stroke-width: 4; stroke: #000000" x="700" y="460" width="100" height="100"/>
  </g>
  <g>
    <rect style="fill: #fc8d62" x="800" y="460" width="100" height="100"/>
    <rect style="fill: none; fill-opacity:0; stroke-width: 4; stroke: #000000" x="800" y="460" width="100" height="100"/>
  </g>
  <g>
    <rect style="fill: #8da0cb" x="900" y="460" width="100" height="100"/>
    <rect style="fill: none; fill-opacity:0; stroke-width: 4; stroke: #000000" x="900" y="460" width="100" height="100"/>
  </g>
  <g>
    <rect style="fill: #66c2a5" x="1000" y="460" width="100" height="100"/>
    <rect style="fill: none; fill-opacity:0; stroke-width: 4; stroke: #000000" x="1000" y="460" width="100" height="100"/>
  </g>
  <g>
    <rect style="fill: #fc8d62" x="1100" y="460" width="100" height="100"/>
    <rect style="fill: none; fill-opacity:0; stroke-width: 4; stroke: #000000" x="1100" y="460" width="100" height="100"/>
  </g>
  <g>
    <rect style="fill: #8da0cb" x="1200" y="460" width="100" height="100"/>
    <rect style="fill: none; fill-opacity:0; stroke-width: 4; stroke: #000000" x="1200" y="460" width="100" height="100"/>
  </g>
  <g>
    <rect style="fill: #66c2a5" x="1300" y="460" width="100" height="100"/>
    <rect style="fill: none; fill-opacity:0; stroke-width: 4; stroke: #000000" x="1300" y="460" width="100" height="100"/>
  </g>
  <g>
    <rect style="fill: #fc8d62" x="1400" y="460" width="100" height="100"/>
    <rect style="fill: none; fill-opacity:0; stroke-width: 4; stroke: #000000" x="1400" y="460" width="100" height="100"/>
  </g>
  <g>
    <rect style="fill: #8da0cb" x="1500" y="460" width="100" height="100"/>
    <rect style="fill: none; fill-opacity:0; stroke-width: 4; stroke: #000000" x="1500" y="460" width="100" height="100"/>
  </g>
  <g>
    <rect style="fill: #66c2a5" x="1600" y="460" width="100" height="100"/>
    <rect style="fill: none; fill-opacity:0; stroke-width: 4; stroke: #000000" x="1600" y="460" width="100" height="100"/>
  </g>
  <g>
    <rect style="fill: #fc8d62" x="1700" y="460" width="100" height="100"/>
    <rect style="fill: none; fill-opacity:0; stroke-width: 4; stroke: #000000" x="1700" y="460" width="100" height="100"/>
  </g>
  <g>
    <rect style="fill: #8da0cb" x="1800" y="460" width="100" height="100"/>
    <rect style="fill: none; fill-opacity:0; stroke-width: 4; stroke: #000000" x="1800" y="460" width="100" height="100"/>
  </g>
  <g>
    <rect style="fill: #66c2a5" x="1900" y="460" width="100" height="100"/>
    <rect style="fill: none; fill-opacity:0; stroke-width: 4; stroke: #000000" x="1900" y="460" width="100" height="100"/>
  </g>
  <g>
    <rect style="fill: #fc8d62" x="2000" y="460" width="100" height="100"/>
    <rect style="fill: none; fill-opacity:0; stroke-width: 4; stroke: #000000" x="2000" y="460" width="100" height="100"/>
  </g>
  <g>
    <rect style="fill: #8da0cb" x="2100" y="460" width="100" height="100"/>
    <rect style="fill: none; fill-opacity:0; stroke-width: 4; stroke: #000000" x="2100" y="460" width="100" height="100"/>
  </g>
  <text font-size="56.4444" style="fill: #000000;text-anchor:start;font-family:sans-serif;font-style:italic;font-weight:normal" x="820" y="826.7">
    <tspan x="820" y="826.7">next-hop 1</tspan>
  </text>
  <text font-size="56.4444" style="fill: #000000;text-anchor:start;font-family:sans-serif;font-style:italic;font-weight:normal" x="1320" y="826.7">
    <tspan x="1320" y="826.7">next-hop 2</tspan>
  </text>
  <text font-size="56.4444" style="fill: #000000;text-anchor:start;font-family:sans-serif;font-style:italic;font-weight:normal" x="1820" y="826.7">
    <tspan x="1820" y="826.7">next-hop 3</tspan>
  </text>
  <text font-size="50.8" style="fill: #000000;text-anchor:middle;font-family:sans-serif;font-style:italic;font-weight:normal" x="2150" y="267.575">
    <tspan x="2150" y="267.575">n</tspan>
  </text>
  <text font-size="50.8" style="fill: #000000;text-anchor:middle;font-family:sans-serif;font-style:italic;font-weight:normal" x="2050" y="267.575">
    <tspan x="2050" y="267.575">n-1</tspan>
  </text>
  <text font-size="50.8" style="fill: #000000;text-anchor:middle;font-family:sans-serif;font-style:italic;font-weight:normal" x="1950" y="267.575">
    <tspan x="1950" y="267.575">n-2</tspan>
  </text>
  <g>
    <rect style="fill: #fc8d62" x="1200" y="200" width="100" height="100"/>
    <rect style="fill: none; fill-opacity:0; stroke-width: 4; stroke: #000000" x="1200" y="200" width="100" height="100"/>
  </g>
  <g>
    <rect style="fill: #fc8d62" x="1300" y="200" width="100" height="100"/>
    <rect style="fill: none; fill-opacity:0; stroke-width: 4; stroke: #000000" x="1300" y="200" width="100" height="100"/>
  </g>
  <g>
    <rect style="fill: #fc8d62" x="1400" y="200" width="100" height="100"/>
    <rect style="fill: none; fill-opacity:0; stroke-width: 4; stroke: #000000" x="1400" y="200" width="100" height="100"/>
  </g>
  <g>
    <rect style="fill: #fc8d62" x="1500" y="200" width="100" height="100"/>
    <rect style="fill: none; fill-opacity:0; stroke-width: 4; stroke: #000000" x="1500" y="200" width="100" height="100"/>
  </g>
  <g>
    <rect style="fill: #fc8d62" x="1600" y="200" width="100" height="100"/>
    <rect style="fill: none; fill-opacity:0; stroke-width: 4; stroke: #000000" x="1600" y="200" width="100" height="100"/>
  </g>
  <text font-size="50.8" style="fill: #000000;text-anchor:middle;font-family:sans-serif;font-style:italic;font-weight:normal" x="1050" y="267.575">
    <tspan x="1050" y="267.575">…</tspan>
  </text>
  <text font-size="50.8" style="fill: #000000;text-anchor:middle;font-family:sans-serif;font-style:italic;font-weight:normal" x="1850" y="267.575">
    <tspan x="1850" y="267.575">…</tspan>
  </text>
  <text font-size="50.8" style="fill: #000000;text-anchor:middle;font-family:sans-serif;font-style:italic;font-weight:normal" x="750" y="527.575">
    <tspan x="750" y="527.575">0</tspan>
  </text>
  <text font-size="50.8" style="fill: #000000;text-anchor:middle;font-family:sans-serif;font-style:italic;font-weight:normal" x="850" y="527.575">
    <tspan x="850" y="527.575">1</tspan>
  </text>
  <text font-size="50.8" style="fill: #000000;text-anchor:middle;font-family:sans-serif;font-style:italic;font-weight:normal" x="950" y="527.575">
    <tspan x="950" y="527.575">2</tspan>
  </text>
  <text font-size="50.8" style="fill: #000000;text-anchor:middle;font-family:sans-serif;font-style:italic;font-weight:normal" x="2150" y="527.575">
    <tspan x="2150" y="527.575">n</tspan>
  </text>
  <text font-size="50.8" style="fill: #000000;text-anchor:middle;font-family:sans-serif;font-style:italic;font-weight:normal" x="2050" y="527.575">
    <tspan x="2050" y="527.575">n-1</tspan>
  </text>
  <text font-size="50.8" style="fill: #000000;text-anchor:middle;font-family:sans-serif;font-style:italic;font-weight:normal" x="1950" y="527.575">
    <tspan x="1950" y="527.575">n-2</tspan>
  </text>
  <text font-size="50.8" style="fill: #000000;text-anchor:middle;font-family:sans-serif;font-style:italic;font-weight:normal" x="1050" y="527.575">
    <tspan x="1050" y="527.575">…</tspan>
  </text>
  <text font-size="50.8" style="fill: #000000;text-anchor:middle;font-family:sans-serif;font-style:italic;font-weight:normal" x="1850" y="527.575">
    <tspan x="1850" y="527.575">…</tspan>
  </text>
  <text font-size="56.4444" style="fill: #000000;text-anchor:start;font-family:sans-serif;font-style:italic;font-weight:normal" x="700" y="146.7">
    <tspan x="700" y="146.7">Hash-Threshold mapping</tspan>
  </text>
  <text font-size="56.4444" style="fill: #000000;text-anchor:start;font-family:sans-serif;font-style:italic;font-weight:normal" x="700" y="423.415">
    <tspan x="700" y="423.415">Modulo-N mapping</tspan>
  </text>
  <path style="fill: none; fill-opacity:0; stroke-width: 4; stroke: #000000" d="M 700 580 C 700,620 1450,600 1450,640"/>
  <path style="fill: none; fill-opacity:0; stroke-width: 4; stroke: #000000" d="M 1450 640 C 1450,600 2200,616 2200,580"/>
  <text font-size="56.4444" style="fill: #000000;text-anchor:middle;font-family:sans-serif;font-style:italic;font-weight:normal" x="1450" y="692.4">
    <tspan x="1450" y="692.4">flow-hash function range</tspan>
  </text>
</svg>
