<?xml version="1.0" encoding="UTF-8" standalone="no"?>
<!DOCTYPE svg PUBLIC "-//W3C//DTD SVG 1.0//EN" "http://www.w3.org/TR/2001/PR-SVG-20010719/DTD/svg10.dtd">
<svg width="23cm" height="29cm" viewBox="900 -720 460 580" xmlns="http://www.w3.org/2000/svg" xmlns:xlink="http://www.w3.org/1999/xlink">
  <rect style="fill: none; fill-opacity:0; stroke-width: 2.35099e-37; stroke: #000000" x="900" y="-720" width="460" height="580"/>
  <g>
    <rect style="fill: #e78ac3" x="1190" y="-260" width="140" height="100"/>
    <rect style="fill: none; fill-opacity:0; stroke-width: 2.35099e-37; stroke: #e78ac3" x="1190" y="-260" width="140" height="100"/>
  </g>
  <g>
    <rect style="fill: #e78ac3" x="1190" y="-400" width="140" height="100"/>
    <rect style="fill: none; fill-opacity:0; stroke-width: 2.35099e-37; stroke: #e78ac3" x="1190" y="-400" width="140" height="100"/>
  </g>
  <g>
    <rect style="fill: #8da0cb" x="1190" y="-300" width="140" height="40"/>
    <rect style="fill: none; fill-opacity:0; stroke-width: 2.35099e-37; stroke: #8da0cb" x="1190" y="-300" width="140" height="40"/>
  </g>
  <g>
    <rect style="fill: #8da0cb" x="1190" y="-460" width="140" height="60"/>
    <rect style="fill: none; fill-opacity:0; stroke-width: 2.35099e-37; stroke: #8da0cb" x="1190" y="-460" width="140" height="60"/>
  </g>
  <g>
    <rect style="fill: #fc8d62" x="1190" y="-560" width="140" height="100"/>
    <rect style="fill: none; fill-opacity:0; stroke-width: 2.35099e-37; stroke: #fc8d62" x="1190" y="-560" width="140" height="100"/>
  </g>
  <g>
    <rect style="fill: #66c2a5" x="1190" y="-700" width="140" height="140"/>
    <rect style="fill: none; fill-opacity:0; stroke-width: 2.35099e-37; stroke: #66c2a5" x="1190" y="-700" width="140" height="140"/>
  </g>
  <g>
    <rect style="fill: #8da0cb" x="940" y="-460" width="100" height="20"/>
    <rect style="fill: none; fill-opacity:0; stroke-width: 2; stroke: #000000" x="940" y="-460" width="100" height="20"/>
  </g>
  <g>
    <rect style="fill: #8da0cb" x="1040" y="-460" width="100" height="20"/>
    <rect style="fill: none; fill-opacity:0; stroke-width: 2; stroke: #000000" x="1040" y="-460" width="100" height="20"/>
  </g>
  <g>
    <rect style="fill: #8da0cb" x="940" y="-440" width="100" height="20"/>
    <rect style="fill: none; fill-opacity:0; stroke-width: 2; stroke: #000000" x="940" y="-440" width="100" height="20"/>
  </g>
  <g>
    <rect style="fill: #8da0cb" x="1040" y="-440" width="50" height="20"/>
    <rect style="fill: none; fill-opacity:0; stroke-width: 2; stroke: #000000" x="1040" y="-440" width="50" height="20"/>
  </g>
  <g>
    <rect style="fill: #8da0cb" x="940" y="-420" width="200" height="20"/>
    <rect style="fill: none; fill-opacity:0; stroke-width: 2; stroke: #000000" x="940" y="-420" width="200" height="20"/>
  </g>
  <g>
    <rect style="fill: #e78ac3" x="940" y="-380" width="200" height="80"/>
    <rect style="fill: none; fill-opacity:0; stroke-width: 2; stroke: #000000" x="940" y="-380" width="200" height="80"/>
  </g>
  <g>
    <rect style="fill: #e78ac3" x="940" y="-240" width="200" height="80"/>
    <rect style="fill: none; fill-opacity:0; stroke-width: 2; stroke: #000000" x="940" y="-240" width="200" height="80"/>
  </g>
  <g>
    <rect style="fill: #e78ac3" x="1015.9" y="-353.631" width="48.2" height="27.2611"/>
    <text font-size="11.2889" style="fill: #000000;text-anchor:middle;font-family:sans-serif;font-style:normal;font-weight:normal" x="1040" y="-343.131">
      <tspan x="1040" y="-343.131">rta_data</tspan>
      <tspan x="1040" y="-329.019">(fc00::1)</tspan>
    </text>
  </g>
  <g>
    <rect style="fill: #e78ac3" x="940" y="-400" width="100" height="20"/>
    <rect style="fill: none; fill-opacity:0; stroke-width: 2; stroke: #000000" x="940" y="-400" width="100" height="20"/>
  </g>
  <g>
    <rect style="fill: #e78ac3" x="1040" y="-400" width="100" height="20"/>
    <rect style="fill: none; fill-opacity:0; stroke-width: 2; stroke: #000000" x="1040" y="-400" width="100" height="20"/>
  </g>
  <g>
    <rect style="fill: #e78ac3" x="1059.9" y="-394.925" width="60.2" height="9.85"/>
    <text font-size="8.46667" style="fill: #000000;text-anchor:middle;font-family:sans-serif;font-style:normal;font-weight:normal" x="1090" y="-387.075">
      <tspan x="1090" y="-387.075">RTA_GATEWAY</tspan>
    </text>
  </g>
  <g>
    <rect style="fill: #e78ac3" x="961.15" y="-394.925" width="57.7" height="9.85"/>
    <text font-size="8.46667" style="fill: #000000;text-anchor:middle;font-family:sans-serif;font-style:normal;font-weight:normal" x="990" y="-387.075">
      <tspan x="990" y="-387.075">rta_len (20 B)</tspan>
    </text>
  </g>
  <g>
    <rect style="fill: #8da0cb" x="1006.25" y="-414.925" width="67.5" height="9.85"/>
    <text font-size="8.46667" style="fill: #000000;text-anchor:middle;font-family:sans-serif;font-style:normal;font-weight:normal" x="1040" y="-407.075">
      <tspan x="1040" y="-407.075">rtnh_ifindex  (0)</tspan>
    </text>
  </g>
  <g>
    <rect style="fill: #8da0cb" x="1046.05" y="-433.3" width="37.9" height="6.6"/>
    <text font-size="5.64444" style="fill: #000000;text-anchor:middle;font-family:sans-serif;font-style:normal;font-weight:normal" x="1065" y="-428.05">
      <tspan x="1065" y="-428.05">rtnh_flags (0)</tspan>
    </text>
  </g>
  <g>
    <rect style="fill: #8da0cb" x="1090" y="-440" width="50" height="20"/>
    <rect style="fill: none; fill-opacity:0; stroke-width: 2; stroke: #000000" x="1090" y="-440" width="50" height="20"/>
  </g>
  <g>
    <rect style="fill: #8da0cb" x="1096.03" y="-433.3" width="37.95" height="6.6"/>
    <text font-size="5.64444" style="fill: #000000;text-anchor:middle;font-family:sans-serif;font-style:normal;font-weight:normal" x="1115" y="-428.05">
      <tspan x="1115" y="-428.05">rtnh_hops (0)</tspan>
    </text>
  </g>
  <g>
    <rect style="fill: #8da0cb" x="1060" y="-441.9" width="0" height="14.9"/>
    <text font-size="12.8" style="fill: #000000;text-anchor:start;font-family:sans-serif;font-style:normal;font-weight:normal" x="1060" y="-430">
      <tspan x="1060" y="-430"></tspan>
    </text>
  </g>
  <g>
    <rect style="fill: #8da0cb" x="958.4" y="-434.925" width="63.2" height="9.85"/>
    <text font-size="8.46667" style="fill: #000000;text-anchor:middle;font-family:sans-serif;font-style:normal;font-weight:normal" x="990" y="-427.075">
      <tspan x="990" y="-427.075">rtnh_len (28 B)</tspan>
    </text>
  </g>
  <g>
    <rect style="fill: #8da0cb" x="1057.15" y="-454.925" width="65.7" height="9.85"/>
    <text font-size="8.46667" style="fill: #000000;text-anchor:middle;font-family:sans-serif;font-style:normal;font-weight:normal" x="1090" y="-447.075">
      <tspan x="1090" y="-447.075">RTA_MULTIPATH</tspan>
    </text>
  </g>
  <g>
    <rect style="fill: #8da0cb" x="961.15" y="-454.925" width="57.7" height="9.85"/>
    <text font-size="8.46667" style="fill: #000000;text-anchor:middle;font-family:sans-serif;font-style:normal;font-weight:normal" x="990" y="-447.075">
      <tspan x="990" y="-447.075">rta_len (60 B)</tspan>
    </text>
  </g>
  <g>
    <rect style="fill: #e78ac3" x="1015.9" y="-213.631" width="48.2" height="27.2611"/>
    <text font-size="11.2889" style="fill: #000000;text-anchor:middle;font-family:sans-serif;font-style:normal;font-weight:normal" x="1040" y="-203.131">
      <tspan x="1040" y="-203.131">rta_data</tspan>
      <tspan x="1040" y="-189.019">(fc01::1)</tspan>
    </text>
  </g>
  <g>
    <rect style="fill: #fc8d62" x="940" y="-540" width="200" height="80"/>
    <rect style="fill: none; fill-opacity:0; stroke-width: 2; stroke: #000000" x="940" y="-540" width="200" height="80"/>
  </g>
  <g>
    <rect style="fill: #fc8d62" x="1016.47" y="-513.631" width="47.05" height="27.2611"/>
    <text font-size="11.2889" style="fill: #000000;text-anchor:middle;font-family:sans-serif;font-style:normal;font-weight:normal" x="1040" y="-503.131">
      <tspan x="1040" y="-503.131">rta_data</tspan>
      <tspan x="1040" y="-489.019">(1001::)</tspan>
    </text>
  </g>
  <g>
    <rect style="fill: #fc8d62" x="940" y="-560" width="100" height="20"/>
    <rect style="fill: none; fill-opacity:0; stroke-width: 2; stroke: #000000" x="940" y="-560" width="100" height="20"/>
  </g>
  <g>
    <rect style="fill: #fc8d62" x="1040" y="-560" width="100" height="20"/>
    <rect style="fill: none; fill-opacity:0; stroke-width: 2; stroke: #000000" x="1040" y="-560" width="100" height="20"/>
  </g>
  <g>
    <rect style="fill: #fc8d62" x="1071.6" y="-554.925" width="36.8" height="9.85"/>
    <text font-size="8.46667" style="fill: #000000;text-anchor:middle;font-family:sans-serif;font-style:normal;font-weight:normal" x="1090" y="-547.075">
      <tspan x="1090" y="-547.075">RTA_DST</tspan>
    </text>
  </g>
  <g>
    <rect style="fill: #fc8d62" x="961.15" y="-554.925" width="57.7" height="9.85"/>
    <text font-size="8.46667" style="fill: #000000;text-anchor:middle;font-family:sans-serif;font-style:normal;font-weight:normal" x="990" y="-547.075">
      <tspan x="990" y="-547.075">rta_len (20 B)</tspan>
    </text>
  </g>
  <g>
    <rect style="fill: #66c2a5" x="940" y="-700" width="200" height="20"/>
    <rect style="fill: none; fill-opacity:0; stroke-width: 2; stroke: #000000" x="940" y="-700" width="200" height="20"/>
  </g>
  <g>
    <rect style="fill: #66c2a5" x="940" y="-680" width="100" height="20"/>
    <rect style="fill: none; fill-opacity:0; stroke-width: 2; stroke: #000000" x="940" y="-680" width="100" height="20"/>
  </g>
  <g>
    <rect style="fill: #66c2a5" x="954.425" y="-674.925" width="71.15" height="9.85"/>
    <text font-size="8.46667" style="fill: #000000;text-anchor:middle;font-family:sans-serif;font-style:normal;font-weight:normal" x="990" y="-667.075">
      <tspan x="990" y="-667.075">RTM_NEWROUTE</tspan>
    </text>
  </g>
  <g>
    <rect style="fill: #66c2a5" x="1001.58" y="-694.925" width="76.85" height="9.85"/>
    <text font-size="8.46667" style="fill: #000000;text-anchor:middle;font-family:sans-serif;font-style:normal;font-weight:normal" x="1040" y="-687.075">
      <tspan x="1040" y="-687.075">nlmsg_len (108 B)</tspan>
    </text>
  </g>
  <g>
    <rect style="fill: #66c2a5" x="1040" y="-680" width="100" height="20"/>
    <rect style="fill: none; fill-opacity:0; stroke-width: 2; stroke: #000000" x="1040" y="-680" width="100" height="20"/>
  </g>
  <g>
    <rect style="fill: #66c2a5" x="1042.53" y="-676.828" width="94.95" height="13.6556"/>
    <text font-size="5.64444" style="fill: #000000;text-anchor:middle;font-family:sans-serif;font-style:normal;font-weight:normal" x="1090" y="-671.578">
      <tspan x="1090" y="-671.578">nlmsg_flags</tspan>
      <tspan x="1090" y="-664.522">(REQUEST | ACK | EXCL | CREATE)</tspan>
    </text>
  </g>
  <g>
    <rect style="fill: #66c2a5" x="940" y="-660" width="200" height="20"/>
    <rect style="fill: none; fill-opacity:0; stroke-width: 2; stroke: #000000" x="940" y="-660" width="200" height="20"/>
  </g>
  <g>
    <rect style="fill: #66c2a5" x="1017.55" y="-654.925" width="44.9" height="9.85"/>
    <text font-size="8.46667" style="fill: #000000;text-anchor:middle;font-family:sans-serif;font-style:normal;font-weight:normal" x="1040" y="-647.075">
      <tspan x="1040" y="-647.075">nlmsg_seq</tspan>
    </text>
  </g>
  <g>
    <rect style="fill: #66c2a5" x="940" y="-640" width="200" height="20"/>
    <rect style="fill: none; fill-opacity:0; stroke-width: 2; stroke: #000000" x="940" y="-640" width="200" height="20"/>
  </g>
  <g>
    <rect style="fill: #66c2a5" x="1011.15" y="-634.925" width="57.7" height="9.85"/>
    <text font-size="8.46667" style="fill: #000000;text-anchor:middle;font-family:sans-serif;font-style:normal;font-weight:normal" x="1040" y="-627.075">
      <tspan x="1040" y="-627.075">nlmsg_pid (0)</tspan>
    </text>
  </g>
  <g>
    <rect style="fill: #66c2a5" x="940" y="-620" width="50" height="20"/>
    <rect style="fill: none; fill-opacity:0; stroke-width: 2; stroke: #000000" x="940" y="-620" width="50" height="20"/>
  </g>
  <g>
    <rect style="fill: #66c2a5" x="951.775" y="-613.3" width="26.45" height="6.6"/>
    <text font-size="5.64444" style="fill: #000000;text-anchor:middle;font-family:sans-serif;font-style:normal;font-weight:normal" x="965" y="-608.05">
      <tspan x="965" y="-608.05">AF_INET6</tspan>
    </text>
  </g>
  <g>
    <rect style="fill: #66c2a5" x="990" y="-620" width="50" height="20"/>
    <rect style="fill: none; fill-opacity:0; stroke-width: 2; stroke: #000000" x="990" y="-620" width="50" height="20"/>
  </g>
  <g>
    <rect style="fill: #66c2a5" x="998.45" y="-616.828" width="33.1" height="13.6556"/>
    <text font-size="5.64444" style="fill: #000000;text-anchor:middle;font-family:sans-serif;font-style:normal;font-weight:normal" x="1015" y="-611.578">
      <tspan x="1015" y="-611.578">rtm_dst_len</tspan>
      <tspan x="1015" y="-604.522">(64)</tspan>
    </text>
  </g>
  <g>
    <rect style="fill: #66c2a5" x="1040" y="-620" width="50" height="20"/>
    <rect style="fill: none; fill-opacity:0; stroke-width: 2; stroke: #000000" x="1040" y="-620" width="50" height="20"/>
  </g>
  <g>
    <rect style="fill: #66c2a5" x="1048.7" y="-616.828" width="32.6" height="13.6556"/>
    <text font-size="5.64444" style="fill: #000000;text-anchor:middle;font-family:sans-serif;font-style:normal;font-weight:normal" x="1065" y="-611.578">
      <tspan x="1065" y="-611.578">rtm_src_len</tspan>
      <tspan x="1065" y="-604.522">(0)</tspan>
    </text>
  </g>
  <g>
    <rect style="fill: #66c2a5" x="1090" y="-620" width="50" height="20"/>
    <rect style="fill: none; fill-opacity:0; stroke-width: 2; stroke: #000000" x="1090" y="-620" width="50" height="20"/>
  </g>
  <g>
    <rect style="fill: #66c2a5" x="1104.27" y="-616.828" width="21.45" height="13.6556"/>
    <text font-size="5.64444" style="fill: #000000;text-anchor:middle;font-family:sans-serif;font-style:normal;font-weight:normal" x="1115" y="-611.578">
      <tspan x="1115" y="-611.578">rtm_tos</tspan>
      <tspan x="1115" y="-604.522">(0)</tspan>
    </text>
  </g>
  <g>
    <rect style="fill: #66c2a5" x="940" y="-600" width="50" height="20"/>
    <rect style="fill: none; fill-opacity:0; stroke-width: 2; stroke: #000000" x="940" y="-600" width="50" height="20"/>
  </g>
  <g>
    <rect style="fill: #66c2a5" x="942.6" y="-593.3" width="44.8" height="6.6"/>
    <text font-size="5.64444" style="fill: #000000;text-anchor:middle;font-family:sans-serif;font-style:normal;font-weight:normal" x="965" y="-588.05">
      <tspan x="965" y="-588.05">RT_TABLE_MAIN</tspan>
    </text>
  </g>
  <g>
    <rect style="fill: #66c2a5" x="990" y="-600" width="50" height="20"/>
    <rect style="fill: none; fill-opacity:0; stroke-width: 2; stroke: #000000" x="990" y="-600" width="50" height="20"/>
  </g>
  <g>
    <rect style="fill: #66c2a5" x="994.375" y="-593.3" width="41.25" height="6.6"/>
    <text font-size="5.64444" style="fill: #000000;text-anchor:middle;font-family:sans-serif;font-style:normal;font-weight:normal" x="1015" y="-588.05">
      <tspan x="1015" y="-588.05">RTPROT_BOOT</tspan>
    </text>
  </g>
  <g>
    <rect style="fill: #66c2a5" x="1090" y="-600" width="50" height="20"/>
    <rect style="fill: none; fill-opacity:0; stroke-width: 2; stroke: #000000" x="1090" y="-600" width="50" height="20"/>
  </g>
  <g>
    <rect style="fill: #66c2a5" x="1095.5" y="-593.3" width="39" height="6.6"/>
    <text font-size="5.64444" style="fill: #000000;text-anchor:middle;font-family:sans-serif;font-style:normal;font-weight:normal" x="1115" y="-588.05">
      <tspan x="1115" y="-588.05">RTN_UNICAST</tspan>
    </text>
  </g>
  <g>
    <rect style="fill: #66c2a5" x="1040" y="-600" width="50" height="20"/>
    <rect style="fill: none; fill-opacity:0; stroke-width: 2; stroke: #000000" x="1040" y="-600" width="50" height="20"/>
  </g>
  <g>
    <rect style="fill: #66c2a5" x="1049.17" y="-596.828" width="31.65" height="13.6556"/>
    <text font-size="5.64444" style="fill: #000000;text-anchor:middle;font-family:sans-serif;font-style:normal;font-weight:normal" x="1065" y="-591.578">
      <tspan x="1065" y="-591.578">RT_SCOPE_</tspan>
      <tspan x="1065" y="-584.522">UNIVERSE</tspan>
    </text>
  </g>
  <g>
    <rect style="fill: #66c2a5" x="940" y="-580" width="200" height="20"/>
    <rect style="fill: none; fill-opacity:0; stroke-width: 2; stroke: #000000" x="940" y="-580" width="200" height="20"/>
  </g>
  <g>
    <rect style="fill: #66c2a5" x="1012.9" y="-574.925" width="54.2" height="9.85"/>
    <text font-size="8.46667" style="fill: #000000;text-anchor:middle;font-family:sans-serif;font-style:normal;font-weight:normal" x="1040" y="-567.075">
      <tspan x="1040" y="-567.075">rtm_flags (0)</tspan>
    </text>
  </g>
  <g>
    <rect style="fill: #8da0cb" x="940" y="-300" width="100" height="20"/>
    <rect style="fill: none; fill-opacity:0; stroke-width: 2; stroke: #000000" x="940" y="-300" width="100" height="20"/>
  </g>
  <g>
    <rect style="fill: #8da0cb" x="1040" y="-300" width="50" height="20"/>
    <rect style="fill: none; fill-opacity:0; stroke-width: 2; stroke: #000000" x="1040" y="-300" width="50" height="20"/>
  </g>
  <g>
    <rect style="fill: #8da0cb" x="940" y="-280" width="200" height="20"/>
    <rect style="fill: none; fill-opacity:0; stroke-width: 2; stroke: #000000" x="940" y="-280" width="200" height="20"/>
  </g>
  <g>
    <rect style="fill: #e78ac3" x="940" y="-260" width="100" height="20"/>
    <rect style="fill: none; fill-opacity:0; stroke-width: 2; stroke: #000000" x="940" y="-260" width="100" height="20"/>
  </g>
  <g>
    <rect style="fill: #e78ac3" x="1040" y="-260" width="100" height="20"/>
    <rect style="fill: none; fill-opacity:0; stroke-width: 2; stroke: #000000" x="1040" y="-260" width="100" height="20"/>
  </g>
  <g>
    <rect style="fill: #e78ac3" x="1059.9" y="-254.925" width="60.2" height="9.85"/>
    <text font-size="8.46667" style="fill: #000000;text-anchor:middle;font-family:sans-serif;font-style:normal;font-weight:normal" x="1090" y="-247.075">
      <tspan x="1090" y="-247.075">RTA_GATEWAY</tspan>
    </text>
  </g>
  <g>
    <rect style="fill: #e78ac3" x="961.15" y="-254.925" width="57.7" height="9.85"/>
    <text font-size="8.46667" style="fill: #000000;text-anchor:middle;font-family:sans-serif;font-style:normal;font-weight:normal" x="990" y="-247.075">
      <tspan x="990" y="-247.075">rta_len (20 B)</tspan>
    </text>
  </g>
  <g>
    <rect style="fill: #8da0cb" x="1006.25" y="-274.925" width="67.5" height="9.85"/>
    <text font-size="8.46667" style="fill: #000000;text-anchor:middle;font-family:sans-serif;font-style:normal;font-weight:normal" x="1040" y="-267.075">
      <tspan x="1040" y="-267.075">rtnh_ifindex  (0)</tspan>
    </text>
  </g>
  <g>
    <rect style="fill: #8da0cb" x="1046.05" y="-293.3" width="37.9" height="6.6"/>
    <text font-size="5.64444" style="fill: #000000;text-anchor:middle;font-family:sans-serif;font-style:normal;font-weight:normal" x="1065" y="-288.05">
      <tspan x="1065" y="-288.05">rtnh_flags (0)</tspan>
    </text>
  </g>
  <g>
    <rect style="fill: #8da0cb" x="1090" y="-300" width="50" height="20"/>
    <rect style="fill: none; fill-opacity:0; stroke-width: 2; stroke: #000000" x="1090" y="-300" width="50" height="20"/>
  </g>
  <g>
    <rect style="fill: #8da0cb" x="1096.03" y="-293.3" width="37.95" height="6.6"/>
    <text font-size="5.64444" style="fill: #000000;text-anchor:middle;font-family:sans-serif;font-style:normal;font-weight:normal" x="1115" y="-288.05">
      <tspan x="1115" y="-288.05">rtnh_hops (0)</tspan>
    </text>
  </g>
  <g>
    <rect style="fill: #8da0cb" x="1060" y="-301.9" width="0" height="14.9"/>
    <text font-size="12.8" style="fill: #000000;text-anchor:start;font-family:sans-serif;font-style:normal;font-weight:normal" x="1060" y="-290">
      <tspan x="1060" y="-290"></tspan>
    </text>
  </g>
  <g>
    <rect style="fill: #8da0cb" x="958.4" y="-294.925" width="63.2" height="9.85"/>
    <text font-size="8.46667" style="fill: #000000;text-anchor:middle;font-family:sans-serif;font-style:normal;font-weight:normal" x="990" y="-287.075">
      <tspan x="990" y="-287.075">rtnh_len (28 B)</tspan>
    </text>
  </g>
  <text font-size="12.8" style="fill: #000000;text-anchor:start;font-family:sans-serif;font-style:normal;font-weight:normal" x="1280" y="-700">
    <tspan x="1280" y="-700"></tspan>
  </text>
  <text font-size="12.8" style="fill: #000000;text-anchor:middle;font-family:monospace;font-style:normal;font-weight:normal" x="1260" y="-685.55">
    <tspan x="1260" y="-685.55">0000: 6c 00 00 00</tspan>
  </text>
  <text font-size="12.8" style="fill: #000000;text-anchor:middle;font-family:monospace;font-style:normal;font-weight:normal" x="1260" y="-665.55">
    <tspan x="1260" y="-665.55">0004: 18 00 05 06</tspan>
  </text>
  <text font-size="12.8" style="fill: #000000;text-anchor:middle;font-family:monospace;font-style:normal;font-weight:normal" x="1260" y="-645.55">
    <tspan x="1260" y="-645.55">0008: 89 23 41 59</tspan>
  </text>
  <text font-size="12.8" style="fill: #000000;text-anchor:middle;font-family:monospace;font-style:normal;font-weight:normal" x="1260" y="-625.55">
    <tspan x="1260" y="-625.55">000c: 00 00 00 00</tspan>
  </text>
  <text font-size="12.8" style="fill: #000000;text-anchor:middle;font-family:monospace;font-style:normal;font-weight:normal" x="1260" y="-605.55">
    <tspan x="1260" y="-605.55">0010: 0a 40 00 00</tspan>
  </text>
  <text font-size="12.8" style="fill: #000000;text-anchor:middle;font-family:monospace;font-style:normal;font-weight:normal" x="1260" y="-585.55">
    <tspan x="1260" y="-585.55">0014: fe 03 00 01</tspan>
  </text>
  <text font-size="12.8" style="fill: #000000;text-anchor:middle;font-family:monospace;font-style:normal;font-weight:normal" x="1260" y="-565.55">
    <tspan x="1260" y="-565.55">0018: 00 00 00 00</tspan>
  </text>
  <text font-size="12.8" style="fill: #000000;text-anchor:middle;font-family:monospace;font-style:normal;font-weight:normal" x="1260" y="-545.55">
    <tspan x="1260" y="-545.55">001c: 14 00 01 00</tspan>
  </text>
  <text font-size="12.8" style="fill: #000000;text-anchor:middle;font-family:monospace;font-style:normal;font-weight:normal" x="1260" y="-525.55">
    <tspan x="1260" y="-525.55">0020: 10 01 00 00</tspan>
  </text>
  <text font-size="12.8" style="fill: #000000;text-anchor:middle;font-family:monospace;font-style:normal;font-weight:normal" x="1260" y="-505.55">
    <tspan x="1260" y="-505.55">0024: 00 00 00 00</tspan>
  </text>
  <text font-size="12.8" style="fill: #000000;text-anchor:middle;font-family:monospace;font-style:normal;font-weight:normal" x="1260" y="-485.55">
    <tspan x="1260" y="-485.55">0028: 00 00 00 00</tspan>
  </text>
  <text font-size="12.8" style="fill: #000000;text-anchor:middle;font-family:monospace;font-style:normal;font-weight:normal" x="1260" y="-465.55">
    <tspan x="1260" y="-465.55">002c: 00 00 00 00</tspan>
  </text>
  <text font-size="12.8" style="fill: #000000;text-anchor:middle;font-family:monospace;font-style:normal;font-weight:normal" x="1260" y="-445.55">
    <tspan x="1260" y="-445.55">0030: 3c 00 09 00</tspan>
  </text>
  <text font-size="12.8" style="fill: #000000;text-anchor:middle;font-family:monospace;font-style:normal;font-weight:normal" x="1260" y="-425.55">
    <tspan x="1260" y="-425.55">0034: 1c 00 00 0b</tspan>
  </text>
  <text font-size="12.8" style="fill: #000000;text-anchor:middle;font-family:monospace;font-style:normal;font-weight:normal" x="1260" y="-405.55">
    <tspan x="1260" y="-405.55">0038: 00 00 00 00</tspan>
  </text>
  <text font-size="12.8" style="fill: #000000;text-anchor:middle;font-family:monospace;font-style:normal;font-weight:normal" x="1260" y="-385.55">
    <tspan x="1260" y="-385.55">003c: 14 00 05 00</tspan>
  </text>
  <text font-size="12.8" style="fill: #000000;text-anchor:middle;font-family:monospace;font-style:normal;font-weight:normal" x="1260" y="-365.55">
    <tspan x="1260" y="-365.55">0040: fc 00 00 00</tspan>
  </text>
  <text font-size="12.8" style="fill: #000000;text-anchor:middle;font-family:monospace;font-style:normal;font-weight:normal" x="1260" y="-345.55">
    <tspan x="1260" y="-345.55">0044: 00 00 00 00</tspan>
  </text>
  <text font-size="12.8" style="fill: #000000;text-anchor:middle;font-family:monospace;font-style:normal;font-weight:normal" x="1260" y="-325.55">
    <tspan x="1260" y="-325.55">0048: 00 00 00 00</tspan>
  </text>
  <text font-size="12.8" style="fill: #000000;text-anchor:middle;font-family:monospace;font-style:normal;font-weight:normal" x="1260" y="-305.55">
    <tspan x="1260" y="-305.55">004c: 00 00 00 01</tspan>
  </text>
  <text font-size="12.8" style="fill: #000000;text-anchor:middle;font-family:monospace;font-style:normal;font-weight:normal" x="1260" y="-285.55">
    <tspan x="1260" y="-285.55"></tspan>
  </text>
  <text font-size="12.8" style="fill: #000000;text-anchor:middle;font-family:monospace;font-style:normal;font-weight:normal" x="1260" y="-285.55">
    <tspan x="1260" y="-285.55">0050: 1c 00 00 00</tspan>
  </text>
  <text font-size="12.8" style="fill: #000000;text-anchor:middle;font-family:monospace;font-style:normal;font-weight:normal" x="1260" y="-265.55">
    <tspan x="1260" y="-265.55">0054: 00 00 00 00</tspan>
  </text>
  <text font-size="12.8" style="fill: #000000;text-anchor:middle;font-family:monospace;font-style:normal;font-weight:normal" x="1260" y="-245.55">
    <tspan x="1260" y="-245.55">0058: 14 00 05 00</tspan>
  </text>
  <text font-size="12.8" style="fill: #000000;text-anchor:middle;font-family:monospace;font-style:normal;font-weight:normal" x="1260" y="-225.55">
    <tspan x="1260" y="-225.55">005c: fc 01 00 00</tspan>
  </text>
  <text font-size="12.8" style="fill: #000000;text-anchor:middle;font-family:monospace;font-style:normal;font-weight:normal" x="1260" y="-205.55">
    <tspan x="1260" y="-205.55">0060: 00 00 00 00</tspan>
  </text>
  <text font-size="12.8" style="fill: #000000;text-anchor:middle;font-family:monospace;font-style:normal;font-weight:normal" x="1260" y="-185.55">
    <tspan x="1260" y="-185.55">0064: 00 00 00 00</tspan>
  </text>
  <text font-size="12.8" style="fill: #000000;text-anchor:middle;font-family:monospace;font-style:normal;font-weight:normal" x="1260" y="-165.55">
    <tspan x="1260" y="-165.55">0068: 00 00 00 01</tspan>
  </text>
  <text font-size="8.46667" style="fill: #000000;text-anchor:middle;font-family:sans-serif;font-style:normal;font-weight:normal" x="940" y="-704">
    <tspan x="940" y="-704">0</tspan>
  </text>
  <text font-size="8.46667" style="fill: #000000;text-anchor:middle;font-family:sans-serif;font-style:normal;font-weight:normal" x="1040" y="-704">
    <tspan x="1040" y="-704">16</tspan>
  </text>
  <text font-size="8.46667" style="fill: #000000;text-anchor:middle;font-family:sans-serif;font-style:normal;font-weight:normal" x="1140" y="-704">
    <tspan x="1140" y="-704">32</tspan>
  </text>
  <text font-size="8.46667" style="fill: #000000;text-anchor:end;font-family:sans-serif;font-style:normal;font-weight:normal" x="936" y="-617.075">
    <tspan x="936" y="-617.075">16 B</tspan>
  </text>
  <text font-size="8.46667" style="fill: #000000;text-anchor:end;font-family:sans-serif;font-style:normal;font-weight:normal" x="936" y="-537.075">
    <tspan x="936" y="-537.075">32 B</tspan>
  </text>
  <text font-size="8.46667" style="fill: #000000;text-anchor:end;font-family:sans-serif;font-style:normal;font-weight:normal" x="936" y="-457.075">
    <tspan x="936" y="-457.075">48 B</tspan>
  </text>
  <text font-size="8.46667" style="fill: #000000;text-anchor:end;font-family:sans-serif;font-style:normal;font-weight:normal" x="936" y="-377.075">
    <tspan x="936" y="-377.075">64 B</tspan>
  </text>
  <text font-size="8.46667" style="fill: #000000;text-anchor:end;font-family:sans-serif;font-style:normal;font-weight:normal" x="936" y="-297.075">
    <tspan x="936" y="-297.075">80 B</tspan>
  </text>
  <text font-size="8.46667" style="fill: #000000;text-anchor:end;font-family:sans-serif;font-style:normal;font-weight:normal" x="936" y="-217.075">
    <tspan x="936" y="-217.075">96 B</tspan>
  </text>
</svg>
